<svg version="1.1" id="Layer_1" xmlns="http://www.w3.org/2000/svg" xmlns:xlink="http://www.w3.org/1999/xlink" x="0px" y="0px"
	 width="100%" viewBox="0 0 340 340" enable-background="new 0 0 340 340" xml:space="preserve">
<path fill="#000000" opacity="1.000000" stroke="none" 
	d="
M337.000000,92.625000 
	C333.981476,98.604996 328.241882,102.559624 327.654968,109.704659 
	C327.241119,114.743332 327.075684,119.454193 328.933502,124.371140 
	C335.875946,142.745316 332.417969,160.785690 324.543518,177.651825 
	C308.262054,212.524750 282.522308,238.338089 247.332642,254.610260 
	C224.044327,265.379089 200.102463,272.867462 174.108368,271.081604 
	C137.138809,268.541748 104.165955,255.592850 75.328476,232.271362 
	C59.770901,219.689606 45.261520,205.945419 31.022379,191.914551 
	C23.865011,184.861893 19.254511,176.252670 16.247190,166.742264 
	C14.867794,162.380020 15.640985,158.722336 19.296629,155.524597 
	C24.305891,151.142807 29.015224,146.415741 33.808655,141.790573 
	C36.349430,139.338989 39.185127,138.429520 42.433098,140.096375 
	C57.761868,147.963120 74.602959,150.562256 91.121498,154.430695 
	C126.782341,162.782043 162.968552,167.712555 199.473679,166.467163 
	C234.346161,165.277466 266.229736,154.483475 290.819427,127.748070 
	C293.409973,124.931496 296.027679,122.068871 299.003540,119.691711 
	C306.460419,113.735100 307.655823,105.982735 306.285645,97.216011 
	C305.799866,94.108055 305.699158,90.921104 305.657257,87.767097 
	C305.597778,83.288918 308.165863,80.727348 312.434021,80.838966 
	C319.259155,81.017426 325.948029,82.539619 332.570007,84.175812 
	C335.158478,84.815384 336.090546,87.017303 336.842773,89.683403 
	C337.000000,90.750000 337.000000,91.500000 337.000000,92.625000 
M320.346527,113.104546 
	C321.081024,105.220261 323.915802,98.061974 328.608246,91.138855 
	C323.083557,89.813911 318.309509,88.154526 312.654663,88.597885 
	C313.551056,100.650993 313.365875,112.199059 310.278015,123.603653 
	C305.564636,141.011826 301.149902,158.637695 289.620392,173.009048 
	C263.893524,205.077240 229.032059,219.403900 189.062286,221.931824 
	C169.100906,223.194305 149.756073,217.889908 130.960648,211.315399 
	C103.892624,201.847168 77.043076,191.872787 53.548405,174.789108 
	C43.981133,167.832443 43.935394,167.895340 35.489349,176.217163 
	C30.807716,180.829941 30.599720,181.040787 35.289597,185.667313 
	C44.654682,194.905914 54.243229,203.919174 63.791637,212.970474 
	C79.501862,227.862839 96.922318,240.279205 116.722420,249.196716 
	C136.645554,258.169586 157.330093,264.709351 179.347458,264.206696 
	C210.921280,263.485931 239.909393,253.660858 265.967773,235.902481 
	C291.420349,218.556915 310.073242,195.478210 320.873993,166.511002 
	C325.931305,152.947433 327.389709,138.931107 321.524872,125.097244 
	C319.952789,121.389000 319.277924,117.844345 320.346527,113.104546 
M181.802292,214.616043 
	C200.204834,214.928452 217.941071,211.628983 234.887299,204.459702 
	C259.152527,194.194046 279.622009,179.421616 291.958679,155.294373 
	C296.305603,146.792923 299.559784,137.891998 301.985870,127.485474 
	C300.393433,128.636078 299.821564,128.959061 299.360168,129.398178 
	C297.309265,131.349930 295.225342,133.273148 293.269836,135.318039 
	C281.100433,148.043716 266.780090,157.564163 250.417068,163.990356 
	C221.220718,175.456512 190.860046,175.345978 160.274658,172.920258 
	C134.994797,170.915314 110.188232,166.026993 85.432060,160.784698 
	C71.804283,157.898926 58.043438,155.555634 45.084450,149.453522 
	C45.349068,156.482178 48.013359,161.602570 53.625904,165.461029 
	C92.135017,191.934952 134.171219,209.312027 181.802292,214.616043 
z"/>
</svg>